<mxfile host="app.diagrams.net" modified="2023-07-22T03:33:34.691Z" agent="Mozilla/5.0 (Windows NT 10.0; Win64; x64) AppleWebKit/537.36 (KHTML, like Gecko) Chrome/115.0.0.0 Safari/537.36" etag="tbq9fEc2bKJJDX7vuGfA" version="21.6.5" type="google">
  <diagram name="Page-1" id="eUaPMoBuZYOt_Iwi9RfD">
    <mxGraphModel grid="1" page="1" gridSize="10" guides="1" tooltips="1" connect="1" arrows="1" fold="1" pageScale="1" pageWidth="1100" pageHeight="850" math="0" shadow="0">
      <root>
        <mxCell id="0" />
        <mxCell id="1" parent="0" />
        <mxCell id="CFL-NsnM3MQmMkSYXV2--5" value="Admin" style="whiteSpace=wrap;html=1;align=center;" vertex="1" parent="1">
          <mxGeometry x="1350" y="320" width="100" height="40" as="geometry" />
        </mxCell>
        <mxCell id="CFL-NsnM3MQmMkSYXV2--20" style="rounded=0;orthogonalLoop=1;jettySize=auto;html=1;endArrow=none;endFill=0;entryX=0;entryY=0.5;entryDx=0;entryDy=0;" edge="1" parent="1" source="CFL-NsnM3MQmMkSYXV2--6" target="CFL-NsnM3MQmMkSYXV2--5">
          <mxGeometry relative="1" as="geometry" />
        </mxCell>
        <mxCell id="CFL-NsnM3MQmMkSYXV2--6" value="password&lt;br&gt;" style="ellipse;whiteSpace=wrap;html=1;align=center;" vertex="1" parent="1">
          <mxGeometry x="1210" y="290" width="100" height="40" as="geometry" />
        </mxCell>
        <mxCell id="CFL-NsnM3MQmMkSYXV2--21" style="rounded=0;orthogonalLoop=1;jettySize=auto;html=1;endArrow=none;endFill=0;entryX=0.5;entryY=0;entryDx=0;entryDy=0;" edge="1" parent="1" source="CFL-NsnM3MQmMkSYXV2--7" target="CFL-NsnM3MQmMkSYXV2--5">
          <mxGeometry relative="1" as="geometry" />
        </mxCell>
        <mxCell id="CFL-NsnM3MQmMkSYXV2--7" value="&lt;u&gt;no_induk_pegawai&lt;/u&gt;" style="ellipse;whiteSpace=wrap;html=1;align=center;" vertex="1" parent="1">
          <mxGeometry x="1220" y="230" width="120" height="36" as="geometry" />
        </mxCell>
        <mxCell id="CFL-NsnM3MQmMkSYXV2--25" style="rounded=0;orthogonalLoop=1;jettySize=auto;html=1;entryX=1;entryY=0.5;entryDx=0;entryDy=0;endArrow=none;endFill=0;" edge="1" parent="1" source="CFL-NsnM3MQmMkSYXV2--8" target="CFL-NsnM3MQmMkSYXV2--5">
          <mxGeometry relative="1" as="geometry" />
        </mxCell>
        <mxCell id="CFL-NsnM3MQmMkSYXV2--8" value="email" style="ellipse;whiteSpace=wrap;html=1;align=center;" vertex="1" parent="1">
          <mxGeometry x="1550" y="290" width="100" height="40" as="geometry" />
        </mxCell>
        <mxCell id="CFL-NsnM3MQmMkSYXV2--23" style="rounded=0;orthogonalLoop=1;jettySize=auto;html=1;endArrow=none;endFill=0;entryX=0.5;entryY=0;entryDx=0;entryDy=0;" edge="1" parent="1" source="CFL-NsnM3MQmMkSYXV2--9" target="CFL-NsnM3MQmMkSYXV2--5">
          <mxGeometry relative="1" as="geometry" />
        </mxCell>
        <mxCell id="CFL-NsnM3MQmMkSYXV2--9" value="nama_admin" style="ellipse;whiteSpace=wrap;html=1;align=center;" vertex="1" parent="1">
          <mxGeometry x="1430" y="200" width="100" height="40" as="geometry" />
        </mxCell>
        <mxCell id="CFL-NsnM3MQmMkSYXV2--26" style="rounded=0;orthogonalLoop=1;jettySize=auto;html=1;endArrow=none;endFill=0;" edge="1" parent="1" source="CFL-NsnM3MQmMkSYXV2--11" target="CFL-NsnM3MQmMkSYXV2--5">
          <mxGeometry relative="1" as="geometry" />
        </mxCell>
        <mxCell id="CFL-NsnM3MQmMkSYXV2--11" value="no_hp" style="ellipse;whiteSpace=wrap;html=1;align=center;" vertex="1" parent="1">
          <mxGeometry x="1540" y="340" width="100" height="40" as="geometry" />
        </mxCell>
        <mxCell id="CFL-NsnM3MQmMkSYXV2--19" style="rounded=0;orthogonalLoop=1;jettySize=auto;html=1;entryX=0;entryY=0.5;entryDx=0;entryDy=0;endArrow=none;endFill=0;" edge="1" parent="1" source="CFL-NsnM3MQmMkSYXV2--13" target="CFL-NsnM3MQmMkSYXV2--5">
          <mxGeometry relative="1" as="geometry" />
        </mxCell>
        <mxCell id="CFL-NsnM3MQmMkSYXV2--13" value="Alamat" style="ellipse;whiteSpace=wrap;html=1;align=center;" vertex="1" parent="1">
          <mxGeometry x="1210" y="340" width="100" height="40" as="geometry" />
        </mxCell>
        <mxCell id="CFL-NsnM3MQmMkSYXV2--22" style="rounded=0;orthogonalLoop=1;jettySize=auto;html=1;endArrow=none;endFill=0;entryX=0.5;entryY=0;entryDx=0;entryDy=0;" edge="1" parent="1" source="CFL-NsnM3MQmMkSYXV2--15" target="CFL-NsnM3MQmMkSYXV2--5">
          <mxGeometry relative="1" as="geometry" />
        </mxCell>
        <mxCell id="CFL-NsnM3MQmMkSYXV2--15" value="tanggal_lahir" style="ellipse;whiteSpace=wrap;html=1;align=center;" vertex="1" parent="1">
          <mxGeometry x="1320" y="200" width="100" height="40" as="geometry" />
        </mxCell>
        <mxCell id="CFL-NsnM3MQmMkSYXV2--24" style="rounded=0;orthogonalLoop=1;jettySize=auto;html=1;endArrow=none;endFill=0;entryX=0.5;entryY=0;entryDx=0;entryDy=0;" edge="1" parent="1" source="CFL-NsnM3MQmMkSYXV2--17" target="CFL-NsnM3MQmMkSYXV2--5">
          <mxGeometry relative="1" as="geometry" />
        </mxCell>
        <mxCell id="CFL-NsnM3MQmMkSYXV2--17" value="gambar" style="ellipse;whiteSpace=wrap;html=1;align=center;" vertex="1" parent="1">
          <mxGeometry x="1530" y="220" width="100" height="40" as="geometry" />
        </mxCell>
        <mxCell id="CFL-NsnM3MQmMkSYXV2--81" style="rounded=0;orthogonalLoop=1;jettySize=auto;html=1;endArrow=none;endFill=0;" edge="1" parent="1" source="CFL-NsnM3MQmMkSYXV2--28" target="CFL-NsnM3MQmMkSYXV2--78">
          <mxGeometry relative="1" as="geometry" />
        </mxCell>
        <mxCell id="CFL-NsnM3MQmMkSYXV2--82" style="rounded=0;orthogonalLoop=1;jettySize=auto;html=1;endArrow=none;endFill=0;" edge="1" parent="1" source="CFL-NsnM3MQmMkSYXV2--28" target="CFL-NsnM3MQmMkSYXV2--79">
          <mxGeometry relative="1" as="geometry" />
        </mxCell>
        <mxCell id="CFL-NsnM3MQmMkSYXV2--83" style="rounded=0;orthogonalLoop=1;jettySize=auto;html=1;entryX=0;entryY=0.5;entryDx=0;entryDy=0;endArrow=none;endFill=0;" edge="1" parent="1" source="CFL-NsnM3MQmMkSYXV2--28" target="CFL-NsnM3MQmMkSYXV2--74">
          <mxGeometry relative="1" as="geometry" />
        </mxCell>
        <mxCell id="CFL-NsnM3MQmMkSYXV2--84" style="rounded=0;orthogonalLoop=1;jettySize=auto;html=1;entryX=0;entryY=0.5;entryDx=0;entryDy=0;endArrow=none;endFill=0;" edge="1" parent="1" source="CFL-NsnM3MQmMkSYXV2--28" target="CFL-NsnM3MQmMkSYXV2--73">
          <mxGeometry relative="1" as="geometry" />
        </mxCell>
        <mxCell id="CFL-NsnM3MQmMkSYXV2--85" style="rounded=0;orthogonalLoop=1;jettySize=auto;html=1;entryX=0.5;entryY=0;entryDx=0;entryDy=0;endArrow=none;endFill=0;" edge="1" parent="1" source="CFL-NsnM3MQmMkSYXV2--28" target="CFL-NsnM3MQmMkSYXV2--75">
          <mxGeometry relative="1" as="geometry" />
        </mxCell>
        <mxCell id="CFL-NsnM3MQmMkSYXV2--28" value="Sertifikat" style="whiteSpace=wrap;html=1;align=center;" vertex="1" parent="1">
          <mxGeometry x="1700" y="460" width="100" height="40" as="geometry" />
        </mxCell>
        <mxCell id="CFL-NsnM3MQmMkSYXV2--54" style="edgeStyle=orthogonalEdgeStyle;rounded=0;orthogonalLoop=1;jettySize=auto;html=1;endArrow=none;endFill=0;shape=link;" edge="1" parent="1" source="CFL-NsnM3MQmMkSYXV2--36" target="CFL-NsnM3MQmMkSYXV2--28">
          <mxGeometry relative="1" as="geometry" />
        </mxCell>
        <mxCell id="CFL-NsnM3MQmMkSYXV2--138" value="&lt;font style=&quot;font-size: 14px;&quot;&gt;M&lt;/font&gt;" style="edgeLabel;html=1;align=center;verticalAlign=middle;resizable=0;points=[];" connectable="0" vertex="1" parent="CFL-NsnM3MQmMkSYXV2--54">
          <mxGeometry x="-0.061" y="1" relative="1" as="geometry">
            <mxPoint as="offset" />
          </mxGeometry>
        </mxCell>
        <mxCell id="CFL-NsnM3MQmMkSYXV2--36" value="memiliki" style="shape=rhombus;perimeter=rhombusPerimeter;whiteSpace=wrap;html=1;align=center;" vertex="1" parent="1">
          <mxGeometry x="1410" y="450" width="120" height="60" as="geometry" />
        </mxCell>
        <mxCell id="CFL-NsnM3MQmMkSYXV2--53" style="edgeStyle=orthogonalEdgeStyle;rounded=0;orthogonalLoop=1;jettySize=auto;html=1;endArrow=none;endFill=0;shape=link;" edge="1" parent="1" source="CFL-NsnM3MQmMkSYXV2--43" target="CFL-NsnM3MQmMkSYXV2--36">
          <mxGeometry relative="1" as="geometry" />
        </mxCell>
        <mxCell id="CFL-NsnM3MQmMkSYXV2--139" value="&lt;font style=&quot;font-size: 14px;&quot;&gt;1&lt;/font&gt;" style="edgeLabel;html=1;align=center;verticalAlign=middle;resizable=0;points=[];" connectable="0" vertex="1" parent="CFL-NsnM3MQmMkSYXV2--53">
          <mxGeometry x="0.0291" y="1" relative="1" as="geometry">
            <mxPoint as="offset" />
          </mxGeometry>
        </mxCell>
        <mxCell id="CFL-NsnM3MQmMkSYXV2--57" style="edgeStyle=orthogonalEdgeStyle;rounded=0;orthogonalLoop=1;jettySize=auto;html=1;entryX=0.5;entryY=1;entryDx=0;entryDy=0;endArrow=none;endFill=0;" edge="1" parent="1" source="CFL-NsnM3MQmMkSYXV2--43" target="CFL-NsnM3MQmMkSYXV2--56">
          <mxGeometry relative="1" as="geometry" />
        </mxCell>
        <mxCell id="CFL-NsnM3MQmMkSYXV2--141" value="&lt;font style=&quot;font-size: 14px;&quot;&gt;1&lt;/font&gt;" style="edgeLabel;html=1;align=center;verticalAlign=middle;resizable=0;points=[];" connectable="0" vertex="1" parent="CFL-NsnM3MQmMkSYXV2--57">
          <mxGeometry x="0.0511" relative="1" as="geometry">
            <mxPoint y="3" as="offset" />
          </mxGeometry>
        </mxCell>
        <mxCell id="CFL-NsnM3MQmMkSYXV2--71" style="edgeStyle=orthogonalEdgeStyle;rounded=0;orthogonalLoop=1;jettySize=auto;html=1;endArrow=none;endFill=0;shape=link;" edge="1" parent="1" source="CFL-NsnM3MQmMkSYXV2--43" target="CFL-NsnM3MQmMkSYXV2--70">
          <mxGeometry relative="1" as="geometry" />
        </mxCell>
        <mxCell id="CFL-NsnM3MQmMkSYXV2--136" value="&lt;font style=&quot;font-size: 14px;&quot;&gt;1&lt;/font&gt;" style="edgeLabel;html=1;align=center;verticalAlign=middle;resizable=0;points=[];" connectable="0" vertex="1" parent="CFL-NsnM3MQmMkSYXV2--71">
          <mxGeometry x="-0.1344" y="-2" relative="1" as="geometry">
            <mxPoint as="offset" />
          </mxGeometry>
        </mxCell>
        <mxCell id="CFL-NsnM3MQmMkSYXV2--43" value="Asesor" style="whiteSpace=wrap;html=1;align=center;" vertex="1" parent="1">
          <mxGeometry x="1040" y="460" width="100" height="40" as="geometry" />
        </mxCell>
        <mxCell id="CFL-NsnM3MQmMkSYXV2--62" style="edgeStyle=orthogonalEdgeStyle;rounded=0;orthogonalLoop=1;jettySize=auto;html=1;entryX=0.953;entryY=0.489;entryDx=0;entryDy=0;entryPerimeter=0;endArrow=none;endFill=0;shape=link;" edge="1" parent="1" source="CFL-NsnM3MQmMkSYXV2--55" target="CFL-NsnM3MQmMkSYXV2--60">
          <mxGeometry relative="1" as="geometry" />
        </mxCell>
        <mxCell id="CFL-NsnM3MQmMkSYXV2--147" value="&lt;font style=&quot;font-size: 14px;&quot;&gt;1&lt;/font&gt;" style="edgeLabel;html=1;align=center;verticalAlign=middle;resizable=0;points=[];" connectable="0" vertex="1" parent="CFL-NsnM3MQmMkSYXV2--62">
          <mxGeometry x="0.0072" y="-1" relative="1" as="geometry">
            <mxPoint as="offset" />
          </mxGeometry>
        </mxCell>
        <mxCell id="CFL-NsnM3MQmMkSYXV2--55" value="Surat_Tugas" style="whiteSpace=wrap;html=1;align=center;" vertex="1" parent="1">
          <mxGeometry x="1040" y="170" width="100" height="40" as="geometry" />
        </mxCell>
        <mxCell id="CFL-NsnM3MQmMkSYXV2--58" style="edgeStyle=orthogonalEdgeStyle;rounded=0;orthogonalLoop=1;jettySize=auto;html=1;entryX=0.5;entryY=1;entryDx=0;entryDy=0;endArrow=none;endFill=0;shape=link;" edge="1" parent="1" source="CFL-NsnM3MQmMkSYXV2--56" target="CFL-NsnM3MQmMkSYXV2--55">
          <mxGeometry relative="1" as="geometry" />
        </mxCell>
        <mxCell id="CFL-NsnM3MQmMkSYXV2--144" value="&lt;font style=&quot;font-size: 14px;&quot;&gt;M&lt;/font&gt;" style="edgeLabel;html=1;align=center;verticalAlign=middle;resizable=0;points=[];" connectable="0" vertex="1" parent="CFL-NsnM3MQmMkSYXV2--58">
          <mxGeometry x="0.0625" y="-2" relative="1" as="geometry">
            <mxPoint x="-2" as="offset" />
          </mxGeometry>
        </mxCell>
        <mxCell id="CFL-NsnM3MQmMkSYXV2--56" value="mendapat" style="shape=rhombus;perimeter=rhombusPerimeter;whiteSpace=wrap;html=1;align=center;" vertex="1" parent="1">
          <mxGeometry x="1030" y="290" width="120" height="60" as="geometry" />
        </mxCell>
        <mxCell id="CFL-NsnM3MQmMkSYXV2--66" style="edgeStyle=orthogonalEdgeStyle;rounded=0;orthogonalLoop=1;jettySize=auto;html=1;endArrow=none;endFill=0;shape=link;" edge="1" parent="1" source="CFL-NsnM3MQmMkSYXV2--59" target="CFL-NsnM3MQmMkSYXV2--65">
          <mxGeometry relative="1" as="geometry" />
        </mxCell>
        <mxCell id="CFL-NsnM3MQmMkSYXV2--145" value="&lt;font style=&quot;font-size: 14px;&quot;&gt;M&lt;/font&gt;" style="edgeLabel;html=1;align=center;verticalAlign=middle;resizable=0;points=[];" connectable="0" vertex="1" parent="CFL-NsnM3MQmMkSYXV2--66">
          <mxGeometry x="0.0114" relative="1" as="geometry">
            <mxPoint as="offset" />
          </mxGeometry>
        </mxCell>
        <mxCell id="CFL-NsnM3MQmMkSYXV2--59" value="jadwal" style="whiteSpace=wrap;html=1;align=center;" vertex="1" parent="1">
          <mxGeometry x="530" y="310" width="100" height="40" as="geometry" />
        </mxCell>
        <mxCell id="CFL-NsnM3MQmMkSYXV2--64" style="edgeStyle=orthogonalEdgeStyle;rounded=0;orthogonalLoop=1;jettySize=auto;html=1;endArrow=none;endFill=0;shape=link;" edge="1" parent="1" source="CFL-NsnM3MQmMkSYXV2--60" target="CFL-NsnM3MQmMkSYXV2--59">
          <mxGeometry relative="1" as="geometry" />
        </mxCell>
        <mxCell id="CFL-NsnM3MQmMkSYXV2--148" value="&lt;font style=&quot;font-size: 14px;&quot;&gt;1&lt;/font&gt;" style="edgeLabel;html=1;align=center;verticalAlign=middle;resizable=0;points=[];" connectable="0" vertex="1" parent="CFL-NsnM3MQmMkSYXV2--64">
          <mxGeometry x="-0.0856" y="-1" relative="1" as="geometry">
            <mxPoint as="offset" />
          </mxGeometry>
        </mxCell>
        <mxCell id="CFL-NsnM3MQmMkSYXV2--60" value="memiliki" style="shape=rhombus;perimeter=rhombusPerimeter;whiteSpace=wrap;html=1;align=center;" vertex="1" parent="1">
          <mxGeometry x="520" y="160" width="120" height="60" as="geometry" />
        </mxCell>
        <mxCell id="CFL-NsnM3MQmMkSYXV2--68" style="edgeStyle=orthogonalEdgeStyle;rounded=0;orthogonalLoop=1;jettySize=auto;html=1;endArrow=none;endFill=0;" edge="1" parent="1" source="CFL-NsnM3MQmMkSYXV2--65" target="CFL-NsnM3MQmMkSYXV2--43">
          <mxGeometry relative="1" as="geometry" />
        </mxCell>
        <mxCell id="CFL-NsnM3MQmMkSYXV2--146" value="&lt;font style=&quot;font-size: 14px;&quot;&gt;1&lt;/font&gt;" style="edgeLabel;html=1;align=center;verticalAlign=middle;resizable=0;points=[];" connectable="0" vertex="1" parent="CFL-NsnM3MQmMkSYXV2--68">
          <mxGeometry x="-0.5486" relative="1" as="geometry">
            <mxPoint as="offset" />
          </mxGeometry>
        </mxCell>
        <mxCell id="CFL-NsnM3MQmMkSYXV2--65" value="mendapat" style="shape=rhombus;perimeter=rhombusPerimeter;whiteSpace=wrap;html=1;align=center;" vertex="1" parent="1">
          <mxGeometry x="520" y="450" width="120" height="60" as="geometry" />
        </mxCell>
        <mxCell id="CFL-NsnM3MQmMkSYXV2--69" value="skema" style="whiteSpace=wrap;html=1;align=center;" vertex="1" parent="1">
          <mxGeometry x="662.5" y="750" width="100" height="40" as="geometry" />
        </mxCell>
        <mxCell id="CFL-NsnM3MQmMkSYXV2--72" style="edgeStyle=orthogonalEdgeStyle;rounded=0;orthogonalLoop=1;jettySize=auto;html=1;endArrow=none;endFill=0;shape=link;" edge="1" parent="1" source="CFL-NsnM3MQmMkSYXV2--70" target="CFL-NsnM3MQmMkSYXV2--69">
          <mxGeometry relative="1" as="geometry" />
        </mxCell>
        <mxCell id="CFL-NsnM3MQmMkSYXV2--137" value="&lt;font style=&quot;font-size: 14px;&quot;&gt;1&lt;/font&gt;" style="edgeLabel;html=1;align=center;verticalAlign=middle;resizable=0;points=[];" connectable="0" vertex="1" parent="CFL-NsnM3MQmMkSYXV2--72">
          <mxGeometry x="0.0354" y="1" relative="1" as="geometry">
            <mxPoint x="-1" as="offset" />
          </mxGeometry>
        </mxCell>
        <mxCell id="CFL-NsnM3MQmMkSYXV2--70" value="memiliki" style="shape=rhombus;perimeter=rhombusPerimeter;whiteSpace=wrap;html=1;align=center;" vertex="1" parent="1">
          <mxGeometry x="1030" y="740" width="120" height="60" as="geometry" />
        </mxCell>
        <mxCell id="CFL-NsnM3MQmMkSYXV2--73" value="tanggal_kadaluarsa" style="ellipse;whiteSpace=wrap;html=1;align=center;" vertex="1" parent="1">
          <mxGeometry x="1880" y="460" width="120" height="40" as="geometry" />
        </mxCell>
        <mxCell id="CFL-NsnM3MQmMkSYXV2--74" value="&lt;u&gt;nomor_sertifikat&lt;br&gt;&lt;/u&gt;" style="ellipse;whiteSpace=wrap;html=1;align=center;" vertex="1" parent="1">
          <mxGeometry x="1890" y="405" width="100" height="40" as="geometry" />
        </mxCell>
        <mxCell id="CFL-NsnM3MQmMkSYXV2--75" value="Tanggal_aktif" style="ellipse;whiteSpace=wrap;html=1;align=center;" vertex="1" parent="1">
          <mxGeometry x="1840" y="520" width="100" height="40" as="geometry" />
        </mxCell>
        <mxCell id="CFL-NsnM3MQmMkSYXV2--78" value="sertifikat" style="ellipse;whiteSpace=wrap;html=1;align=center;" vertex="1" parent="1">
          <mxGeometry x="1690" y="340" width="120" height="40" as="geometry" />
        </mxCell>
        <mxCell id="CFL-NsnM3MQmMkSYXV2--79" value="Status_serifikat" style="ellipse;whiteSpace=wrap;html=1;align=center;" vertex="1" parent="1">
          <mxGeometry x="1825" y="350" width="135" height="40" as="geometry" />
        </mxCell>
        <mxCell id="CFL-NsnM3MQmMkSYXV2--118" style="rounded=0;orthogonalLoop=1;jettySize=auto;html=1;entryX=0.5;entryY=1;entryDx=0;entryDy=0;endArrow=none;endFill=0;" edge="1" parent="1" source="CFL-NsnM3MQmMkSYXV2--102" target="CFL-NsnM3MQmMkSYXV2--43">
          <mxGeometry relative="1" as="geometry" />
        </mxCell>
        <mxCell id="CFL-NsnM3MQmMkSYXV2--102" value="email" style="ellipse;whiteSpace=wrap;html=1;align=center;" vertex="1" parent="1">
          <mxGeometry x="990" y="650" width="100" height="40" as="geometry" />
        </mxCell>
        <mxCell id="CFL-NsnM3MQmMkSYXV2--111" style="rounded=0;orthogonalLoop=1;jettySize=auto;html=1;entryX=0.5;entryY=1;entryDx=0;entryDy=0;endArrow=none;endFill=0;" edge="1" parent="1" source="CFL-NsnM3MQmMkSYXV2--103" target="CFL-NsnM3MQmMkSYXV2--43">
          <mxGeometry relative="1" as="geometry" />
        </mxCell>
        <mxCell id="CFL-NsnM3MQmMkSYXV2--103" value="nomor_ktp" style="ellipse;whiteSpace=wrap;html=1;align=center;" vertex="1" parent="1">
          <mxGeometry x="820" y="530" width="100" height="40" as="geometry" />
        </mxCell>
        <mxCell id="CFL-NsnM3MQmMkSYXV2--115" style="rounded=0;orthogonalLoop=1;jettySize=auto;html=1;entryX=0.5;entryY=1;entryDx=0;entryDy=0;endArrow=none;endFill=0;" edge="1" parent="1" source="CFL-NsnM3MQmMkSYXV2--104" target="CFL-NsnM3MQmMkSYXV2--43">
          <mxGeometry relative="1" as="geometry" />
        </mxCell>
        <mxCell id="CFL-NsnM3MQmMkSYXV2--104" value="password" style="ellipse;whiteSpace=wrap;html=1;align=center;" vertex="1" parent="1">
          <mxGeometry x="1210" y="590" width="100" height="40" as="geometry" />
        </mxCell>
        <mxCell id="CFL-NsnM3MQmMkSYXV2--113" style="rounded=0;orthogonalLoop=1;jettySize=auto;html=1;entryX=0.5;entryY=1;entryDx=0;entryDy=0;endArrow=none;endFill=0;" edge="1" parent="1" source="CFL-NsnM3MQmMkSYXV2--105" target="CFL-NsnM3MQmMkSYXV2--43">
          <mxGeometry relative="1" as="geometry" />
        </mxCell>
        <mxCell id="CFL-NsnM3MQmMkSYXV2--105" value="pendidikan_terakhir" style="ellipse;whiteSpace=wrap;html=1;align=center;" vertex="1" parent="1">
          <mxGeometry x="900" y="610" width="120" height="50" as="geometry" />
        </mxCell>
        <mxCell id="CFL-NsnM3MQmMkSYXV2--114" style="rounded=0;orthogonalLoop=1;jettySize=auto;html=1;entryX=0.5;entryY=1;entryDx=0;entryDy=0;endArrow=none;endFill=0;" edge="1" parent="1" source="CFL-NsnM3MQmMkSYXV2--106" target="CFL-NsnM3MQmMkSYXV2--43">
          <mxGeometry relative="1" as="geometry" />
        </mxCell>
        <mxCell id="CFL-NsnM3MQmMkSYXV2--106" value="&lt;u&gt;nomor_regristrasi _asesor&lt;/u&gt;" style="ellipse;whiteSpace=wrap;html=1;align=center;" vertex="1" parent="1">
          <mxGeometry x="1110" y="630" width="150" height="50" as="geometry" />
        </mxCell>
        <mxCell id="CFL-NsnM3MQmMkSYXV2--112" style="rounded=0;orthogonalLoop=1;jettySize=auto;html=1;entryX=0.5;entryY=1;entryDx=0;entryDy=0;endArrow=none;endFill=0;" edge="1" parent="1" source="CFL-NsnM3MQmMkSYXV2--107" target="CFL-NsnM3MQmMkSYXV2--43">
          <mxGeometry relative="1" as="geometry" />
        </mxCell>
        <mxCell id="CFL-NsnM3MQmMkSYXV2--107" value="alamat" style="ellipse;whiteSpace=wrap;html=1;align=center;" vertex="1" parent="1">
          <mxGeometry x="850" y="570" width="100" height="40" as="geometry" />
        </mxCell>
        <mxCell id="CFL-NsnM3MQmMkSYXV2--116" style="rounded=0;orthogonalLoop=1;jettySize=auto;html=1;entryX=0.5;entryY=1;entryDx=0;entryDy=0;endArrow=none;endFill=0;" edge="1" parent="1" source="CFL-NsnM3MQmMkSYXV2--108" target="CFL-NsnM3MQmMkSYXV2--43">
          <mxGeometry relative="1" as="geometry" />
        </mxCell>
        <mxCell id="CFL-NsnM3MQmMkSYXV2--108" value="nama_asesor" style="ellipse;whiteSpace=wrap;html=1;align=center;" vertex="1" parent="1">
          <mxGeometry x="1260" y="550" width="100" height="40" as="geometry" />
        </mxCell>
        <mxCell id="CFL-NsnM3MQmMkSYXV2--127" style="rounded=0;orthogonalLoop=1;jettySize=auto;html=1;entryX=0.5;entryY=1;entryDx=0;entryDy=0;endArrow=none;endFill=0;" edge="1" parent="1" source="CFL-NsnM3MQmMkSYXV2--109" target="CFL-NsnM3MQmMkSYXV2--43">
          <mxGeometry relative="1" as="geometry" />
        </mxCell>
        <mxCell id="CFL-NsnM3MQmMkSYXV2--109" value="tanggal_lahir" style="ellipse;whiteSpace=wrap;html=1;align=center;" vertex="1" parent="1">
          <mxGeometry x="830" y="490" width="100" height="40" as="geometry" />
        </mxCell>
        <mxCell id="CFL-NsnM3MQmMkSYXV2--117" style="rounded=0;orthogonalLoop=1;jettySize=auto;html=1;endArrow=none;endFill=0;entryX=0.5;entryY=1;entryDx=0;entryDy=0;" edge="1" parent="1" source="CFL-NsnM3MQmMkSYXV2--110" target="CFL-NsnM3MQmMkSYXV2--43">
          <mxGeometry relative="1" as="geometry" />
        </mxCell>
        <mxCell id="CFL-NsnM3MQmMkSYXV2--110" value="gambar&lt;br&gt;" style="ellipse;whiteSpace=wrap;html=1;align=center;" vertex="1" parent="1">
          <mxGeometry x="1310" y="500" width="110" height="50" as="geometry" />
        </mxCell>
        <mxCell id="CFL-NsnM3MQmMkSYXV2--126" style="rounded=0;orthogonalLoop=1;jettySize=auto;html=1;endArrow=none;endFill=0;entryX=0.5;entryY=0;entryDx=0;entryDy=0;" edge="1" parent="1" source="CFL-NsnM3MQmMkSYXV2--119" target="CFL-NsnM3MQmMkSYXV2--55">
          <mxGeometry relative="1" as="geometry" />
        </mxCell>
        <mxCell id="CFL-NsnM3MQmMkSYXV2--119" value="tanggal_st" style="ellipse;whiteSpace=wrap;html=1;align=center;" vertex="1" parent="1">
          <mxGeometry x="1125" y="120" width="100" height="40" as="geometry" />
        </mxCell>
        <mxCell id="CFL-NsnM3MQmMkSYXV2--123" style="rounded=0;orthogonalLoop=1;jettySize=auto;html=1;entryX=0.5;entryY=0;entryDx=0;entryDy=0;endArrow=none;endFill=0;" edge="1" parent="1" source="CFL-NsnM3MQmMkSYXV2--120" target="CFL-NsnM3MQmMkSYXV2--55">
          <mxGeometry relative="1" as="geometry" />
        </mxCell>
        <mxCell id="CFL-NsnM3MQmMkSYXV2--120" value="&lt;u&gt;no_st&lt;/u&gt;" style="ellipse;whiteSpace=wrap;html=1;align=center;" vertex="1" parent="1">
          <mxGeometry x="940" y="120" width="100" height="40" as="geometry" />
        </mxCell>
        <mxCell id="CFL-NsnM3MQmMkSYXV2--124" style="rounded=0;orthogonalLoop=1;jettySize=auto;html=1;endArrow=none;endFill=0;entryX=0.5;entryY=0;entryDx=0;entryDy=0;" edge="1" parent="1" source="CFL-NsnM3MQmMkSYXV2--121" target="CFL-NsnM3MQmMkSYXV2--55">
          <mxGeometry relative="1" as="geometry" />
        </mxCell>
        <mxCell id="CFL-NsnM3MQmMkSYXV2--121" value="Skema_st" style="ellipse;whiteSpace=wrap;html=1;align=center;" vertex="1" parent="1">
          <mxGeometry x="970" y="70" width="100" height="40" as="geometry" />
        </mxCell>
        <mxCell id="CFL-NsnM3MQmMkSYXV2--125" style="rounded=0;orthogonalLoop=1;jettySize=auto;html=1;entryX=0.5;entryY=0;entryDx=0;entryDy=0;endArrow=none;endFill=0;" edge="1" parent="1" source="CFL-NsnM3MQmMkSYXV2--122" target="CFL-NsnM3MQmMkSYXV2--55">
          <mxGeometry relative="1" as="geometry" />
        </mxCell>
        <mxCell id="CFL-NsnM3MQmMkSYXV2--122" value="Deskripsi" style="ellipse;whiteSpace=wrap;html=1;align=center;" vertex="1" parent="1">
          <mxGeometry x="1080" y="70" width="100" height="40" as="geometry" />
        </mxCell>
        <mxCell id="CFL-NsnM3MQmMkSYXV2--130" style="rounded=0;orthogonalLoop=1;jettySize=auto;html=1;entryX=0;entryY=0.5;entryDx=0;entryDy=0;endArrow=none;endFill=0;" edge="1" parent="1" source="CFL-NsnM3MQmMkSYXV2--128" target="CFL-NsnM3MQmMkSYXV2--59">
          <mxGeometry relative="1" as="geometry" />
        </mxCell>
        <mxCell id="CFL-NsnM3MQmMkSYXV2--128" value="&lt;u&gt;id_jadwal&lt;/u&gt;" style="ellipse;whiteSpace=wrap;html=1;align=center;" vertex="1" parent="1">
          <mxGeometry x="430" y="226" width="100" height="40" as="geometry" />
        </mxCell>
        <mxCell id="CFL-NsnM3MQmMkSYXV2--131" style="rounded=0;orthogonalLoop=1;jettySize=auto;html=1;entryX=0;entryY=0.5;entryDx=0;entryDy=0;endArrow=none;endFill=0;" edge="1" parent="1" source="CFL-NsnM3MQmMkSYXV2--129" target="CFL-NsnM3MQmMkSYXV2--59">
          <mxGeometry relative="1" as="geometry" />
        </mxCell>
        <mxCell id="CFL-NsnM3MQmMkSYXV2--129" value="tanggal_jadwal" style="ellipse;whiteSpace=wrap;html=1;align=center;" vertex="1" parent="1">
          <mxGeometry x="380" y="266" width="100" height="40" as="geometry" />
        </mxCell>
        <mxCell id="CFL-NsnM3MQmMkSYXV2--151" style="rounded=0;orthogonalLoop=1;jettySize=auto;html=1;endArrow=none;endFill=0;" edge="1" parent="1" source="CFL-NsnM3MQmMkSYXV2--132" target="CFL-NsnM3MQmMkSYXV2--69">
          <mxGeometry relative="1" as="geometry" />
        </mxCell>
        <mxCell id="CFL-NsnM3MQmMkSYXV2--132" value="nama_skema" style="ellipse;whiteSpace=wrap;html=1;align=center;" vertex="1" parent="1">
          <mxGeometry x="510" y="780" width="120" height="40" as="geometry" />
        </mxCell>
        <mxCell id="CFL-NsnM3MQmMkSYXV2--150" style="rounded=0;orthogonalLoop=1;jettySize=auto;html=1;endArrow=none;endFill=0;" edge="1" parent="1" source="CFL-NsnM3MQmMkSYXV2--133" target="CFL-NsnM3MQmMkSYXV2--69">
          <mxGeometry relative="1" as="geometry" />
        </mxCell>
        <mxCell id="CFL-NsnM3MQmMkSYXV2--133" value="&lt;u&gt;id_skema&lt;/u&gt;" style="ellipse;whiteSpace=wrap;html=1;align=center;" vertex="1" parent="1">
          <mxGeometry x="510" y="710" width="120" height="40" as="geometry" />
        </mxCell>
        <mxCell id="WFKhPbBaJXriPZijM9Pp-2" style="rounded=0;orthogonalLoop=1;jettySize=auto;html=1;entryX=0;entryY=0.5;entryDx=0;entryDy=0;endArrow=none;endFill=0;" edge="1" parent="1" source="WFKhPbBaJXriPZijM9Pp-1" target="CFL-NsnM3MQmMkSYXV2--59">
          <mxGeometry relative="1" as="geometry" />
        </mxCell>
        <mxCell id="WFKhPbBaJXriPZijM9Pp-1" value="tempat" style="ellipse;whiteSpace=wrap;html=1;align=center;" vertex="1" parent="1">
          <mxGeometry x="380" y="310" width="100" height="40" as="geometry" />
        </mxCell>
        <mxCell id="WFKhPbBaJXriPZijM9Pp-5" style="rounded=0;orthogonalLoop=1;jettySize=auto;html=1;entryX=0;entryY=0.5;entryDx=0;entryDy=0;endArrow=none;endFill=0;" edge="1" parent="1" source="WFKhPbBaJXriPZijM9Pp-3" target="CFL-NsnM3MQmMkSYXV2--59">
          <mxGeometry relative="1" as="geometry" />
        </mxCell>
        <mxCell id="WFKhPbBaJXriPZijM9Pp-3" value="waktu" style="ellipse;whiteSpace=wrap;html=1;align=center;" vertex="1" parent="1">
          <mxGeometry x="400" y="360" width="100" height="40" as="geometry" />
        </mxCell>
      </root>
    </mxGraphModel>
  </diagram>
</mxfile>
